<?xml version="1.0" encoding="UTF-8"?> <svg xmlns="http://www.w3.org/2000/svg" xmlns:xlink="http://www.w3.org/1999/xlink" version="1.1" id="Layer_1" x="0px" y="0px" viewBox="0 0 100 42.6" style="enable-background:new 0 0 100 42.6;" xml:space="preserve"> <style type="text/css"> .st0{fill:#243066;} </style> <path class="st0" d="M29,39.4c0-0.6-0.5-0.9-0.9-0.9h-1.6v3h0.4v-1.2h0.9l0.8,1.2H29l-0.8-1.2C28.6,40.3,29,40,29,39.4z M26.9,39.9 v-1.1H28c0.4,0,0.6,0.2,0.6,0.5c0,0.3-0.2,0.5-0.6,0.5H26.9z M22.7,38.5h2.1v0.4h-1.7v0.9h1.4v0.4h-1.4v1h1.7v0.4h-2.1V38.5z M0.3,41.5h0.4l0.3-0.7l1.5,0L3,41.5h0.4l-1.5-3.2L0.3,41.5z M1.3,40.4l0.6-1.3l0.6,1.3L1.3,40.4z M10.9,38.5H13v0.4h-1.7v0.9h1.4 v0.4h-1.4v1H13v0.4h-2.1V38.5z M8.7,39.9C8.8,39.8,9,39.7,9,39.3c0-0.7-0.5-0.8-1-0.8H6.8v3h1.4c0.4,0,0.9-0.3,0.9-0.9 C9.2,40.2,8.9,40,8.7,39.9z M7.2,38.9H8c0.2,0,0.6,0,0.6,0.4c0,0.3-0.3,0.5-0.5,0.5H7.2V38.9z M8.2,41.1h-1v-0.9h1 c0.3,0,0.6,0.1,0.6,0.4C8.8,41,8.5,41.1,8.2,41.1z M18.5,38.5h2.6v0.4H20v2.7h-0.4v-2.7h-1.1V38.5z M32.3,38.5h2.6v0.4h-1.1v2.7 h-0.4v-2.7h-1.1V38.5z M14.6,38.5h2.6v0.4h-1.1v2.7h-0.4v-2.7h-1.1V38.5z M66.7,38.5h0.4l-1.3,3.2l-0.9-2.3L64,41.7l-1.3-3.2h0.4 l0.9,2.2l0.9-2.3l0.9,2.4L66.7,38.5z M37.7,38.4c-0.9,0-1.6,0.7-1.6,1.6c0,0.9,0.7,1.6,1.6,1.6c0.9,0,1.6-0.7,1.6-1.6 C39.3,39.1,38.6,38.4,37.7,38.4z M37.7,41.2c-0.7,0-1.2-0.5-1.2-1.2c0-0.7,0.5-1.2,1.2-1.2c0.7,0,1.2,0.5,1.2,1.2 C38.9,40.7,38.4,41.2,37.7,41.2z M60.3,38.4c-0.9,0-1.6,0.7-1.6,1.6c0,0.9,0.7,1.6,1.6,1.6c0.9,0,1.6-0.7,1.6-1.6 C61.9,39.1,61.2,38.4,60.3,38.4z M60.3,41.2c-0.7,0-1.2-0.5-1.2-1.2c0-0.7,0.5-1.2,1.2-1.2c0.7,0,1.2,0.5,1.2,1.2 C61.5,40.7,61,41.2,60.3,41.2z M42.5,40.4l1.7-2.1v3.2h-0.4v-2.1l-1.3,1.6l-1.2-1.6v2.1h-0.4v-3.2L42.5,40.4z M47.3,38.4 c-0.9,0-1.6,0.7-1.6,1.6c0,0.9,0.7,1.6,1.6,1.6c0.9,0,1.6-0.7,1.6-1.6C48.9,39.1,48.2,38.4,47.3,38.4z M47.3,41.2 c-0.7,0-1.2-0.5-1.2-1.2c0-0.7,0.5-1.2,1.2-1.2c0.7,0,1.2,0.5,1.2,1.2C48.5,40.7,48,41.2,47.3,41.2z M53.1,39.4 c0-0.6-0.5-0.9-0.9-0.9h-1.6v3H51v-1.2h0.9l0.8,1.2h0.5l-0.8-1.2C52.8,40.3,53.1,40,53.1,39.4z M51,39.9v-1.1h1.1 c0.4,0,0.6,0.2,0.6,0.5c0,0.3-0.2,0.5-0.6,0.5H51z M57.3,39.4c0-0.6-0.5-0.9-0.9-0.9h-1.6v3h0.4v-1.2h0.9l0.8,1.2h0.5l-0.8-1.2 C56.9,40.3,57.3,40,57.3,39.4z M55.2,39.9v-1.1h1.1c0.4,0,0.6,0.2,0.6,0.5c0,0.3-0.2,0.5-0.6,0.5H55.2z"></path> <g> <g> <path class="st0" d="M88.4,14.9c0.6,3.4-1.7,7-6,10.3c0,0,0,0.1,0,0.1c3.5-2.2,7.1-4.7,9.6-7.9c0.9-1.2,1.6-2.6,1.8-4.1 c0.2-2.8-1.6-5.1-4-6.4c-1.6-0.9-3.3-1.4-5.1-1.8c-3.1-0.7-6.2-0.9-9.3-0.9c-1.6,0-3.2,0.1-4.8,0.3C69.1,4.6,67.5,4.7,66,5 c-1.5,0.3-3,0.5-4.5,0.9c-0.2,0-0.3,0.1-0.5,0.1c0,0,0,0.1,0,0.1C75.4,4.8,87.1,8.3,88.4,14.9z"></path> <path class="st0" d="M75.5,2.5C75.5,2.5,75.5,2.4,75.5,2.5c1.1-0.3,2.2-0.5,3.3-0.7c1.8-0.3,3.5-0.5,5.3-0.7 c3.1-0.3,6.3-0.5,9.3,0c0.7,0.1,1.4,0.2,2,0.4C97.2,2,99,2.9,99.4,4.6c0.3,1.1,0.1,2.4-0.2,3.5c-0.7,2.2-2.1,4.1-3.6,5.8 c-0.1,0.1-0.2,0.2-0.3,0.3c0,0-0.1,0-0.1,0c0.6-1.6,0.9-3.3,0.6-5C95.4,6.8,93.4,5,91.1,4c-2.7-1.2-5.7-1.5-8.7-1.6 C80.1,2.4,77.8,2.4,75.5,2.5z"></path> </g> <path class="st0" d="M23.5,28.1c0,3.2-2.7,5.8-6,5.8l-17.2,0v0v-5.3h4.1v1.3l13.1,0c1,0,1.8-0.8,1.8-1.8c0-1-0.8-1.8-1.8-1.8H0.3 v-4l13.8,0c1,0,1.8-0.8,1.8-1.8c0-1-0.8-1.8-1.8-1.8H4.4V20H0.3v-5.3l13.8,0c3.3,0,6,2.6,6,5.8c0,0.8-0.2,1.5-0.4,2.2 C21.9,23.5,23.5,25.6,23.5,28.1z M52.7,14.6h24.7v4H52.7V14.6z M62.9,21h4.1v12.9h-4.1V21z M41.8,25.3l3.1,4H33.6L30,33.9h-5.2 l15.9-20.4l15.9,20.4h-5.2L40.7,20.2l-4,5.1H41.8z"></path> </g> </svg> 